<svg width="24" height="24" viewBox="-5 -5 24 24" fill="none" xmlns="http://www.w3.org/2000/svg">
<path opacity="0.7" d="M6.784 1.989L7.648 4.856C7.862 5.567 8.418 6.123 9.129 6.337L11.995 7.201C11.995 8.014 11.995 7.96 11.995 8.773L9.129 9.637C8.418 9.851 7.862 10.407 7.648 11.118L6.784 13.984C5.971 13.984 6.025 13.984 5.212 13.984L4.348 11.118C4.134 10.407 3.578 9.851 2.867 9.637L0 8.773C0 7.96 0 8.014 0 7.201L2.867 6.337C3.578 6.123 4.134 5.567 4.348 4.856L5.212 1.99C6.025 1.989 5.971 1.989 6.784 1.989ZM12.504 0L12.731 0.898C12.775 1.073 12.912 1.21 13.087 1.254L13.985 1.481C13.985 2.023 13.985 1.951 13.985 2.493L13.087 2.72C12.912 2.764 12.775 2.901 12.731 3.076L12.504 3.974C11.962 3.974 12.034 3.974 11.492 3.974L11.265 3.076C11.221 2.901 11.084 2.764 10.909 2.72L10.011 2.493C10.011 1.951 10.011 2.023 10.011 1.481L10.909 1.254C11.084 1.21 11.221 1.073 11.265 0.898L11.492 0C12.034 0 11.962 0 12.504 0Z" fill="#5A6640"/>
</svg>
