<svg width="60" height="60" viewBox="0 0 60 60" fill="none" xmlns="http://www.w3.org/2000/svg">
<path d="M30 0C13.44 0 0 13.44 0 30C0 46.56 13.44 60 30 60C46.56 60 60 46.56 60 30C60 13.44 46.56 0 30 0ZM16.71 20.73C16.95 20.37 17.1 19.92 17.1 19.47C16.8 8.88 24.12 6 30.03 6C35.88 6 43.2 8.88 42.9 19.23C42.87 19.47 42.93 19.68 42.99 19.92C43.11 20.28 43.56 20.97 43.8 21.51C44.07 22.2 44.22 22.92 44.22 23.7C44.22 25.68 43.23 27.33 41.61 28.35C41.13 28.68 40.47 29.28 40.17 29.82C38.58 32.58 35.79 34.17 32.94 35.43C31.86 35.88 30.69 36 29.91 36C29.1 36 27.93 35.88 26.82 35.37C23.73 33.99 21.27 32.4 19.83 29.76C19.53 29.25 18.9 28.62 18.42 28.32C16.92 27.33 15.96 25.77 15.87 23.88C15.84 22.74 16.17 21.66 16.71 20.73ZM47.46 46.44C43.08 51.09 36.9 54 30 54C23.1 54 16.92 51.09 12.54 46.44C11.34 45.15 11.28 43.14 12.45 41.82C13.83 40.29 15.66 39 17.88 38.25C18.78 37.95 19.74 38.16 20.52 38.67C21.84 39.51 23.52 40.35 24.75 40.92C26.31 41.64 28.11 42 30 42C31.89 42 33.69 41.64 35.25 40.92C36.48 40.35 38.16 39.51 39.48 38.67C40.26 38.16 41.22 37.95 42.12 38.25C44.34 39 46.17 40.29 47.55 41.82C48.72 43.14 48.66 45.15 47.46 46.44Z" fill="#E9F0D3"/>
<path d="M47.4601 46.4396C43.0801 51.0896 36.9001 53.9996 30.0001 53.9996C23.1001 53.9996 16.9201 51.0896 12.5401 46.4396C11.3401 45.1496 11.2801 43.1396 12.4501 41.8196C13.8301 40.2896 15.6601 38.9996 17.8801 38.2496C18.7801 37.9496 19.7401 38.1596 20.5201 38.6696C21.8401 39.5096 23.5201 40.3496 24.7501 40.9196C26.3101 41.6396 28.1101 41.9996 30.0001 41.9996C31.8901 41.9996 33.6901 41.6396 35.2501 40.9196C36.4801 40.3496 38.1601 39.5096 39.4801 38.6696C40.2601 38.1596 41.2201 37.9496 42.1201 38.2496C44.3401 38.9996 46.1701 40.2896 47.5501 41.8196C48.7201 43.1396 48.6601 45.1496 47.4601 46.4396Z" fill="white"/>
<path d="M44.22 23.7C44.22 25.68 43.23 27.33 41.6101 28.35C41.13 28.68 40.4701 29.28 40.1701 29.82C38.5801 32.58 35.79 34.17 32.94 35.43C31.86 35.88 30.6901 36 29.9101 36C29.1 36 27.93 35.88 26.82 35.37C23.73 33.99 21.27 32.4 19.83 29.76C19.53 29.25 18.9001 28.62 18.4201 28.32C16.9201 27.33 15.9601 25.77 15.8701 23.88C15.8401 22.74 16.1701 21.66 16.7101 20.73C16.9501 20.37 17.1 19.92 17.1 19.47C16.8 8.88 24.1201 6 30.0301 6C35.8801 6 43.2 8.88 42.9 19.23C42.87 19.47 42.93 19.68 42.99 19.92C43.1101 20.28 43.5601 20.97 43.8001 21.51C44.0701 22.2 44.22 22.92 44.22 23.7Z" fill="white"/>
</svg>
