<svg width="24" height="24" viewBox="-4 -4 24 24" fill="none" xmlns="http://www.w3.org/2000/svg">
<path opacity="0.7" d="M16 5.787C15.692 5.043 15.53 4.653 15.222 3.908L12.946 3.054L12.092 0.778C11.348 0.47 10.957 0.308 10.213 0L8 1.006L5.787 0C5.043 0.308 4.652 0.47 3.908 0.778L3.054 3.054L0.778 3.908C0.47 4.652 0.308 5.042 0 5.787L1.006 8L0 10.213C0.308 10.957 0.47 11.347 0.778 12.092L3.054 12.946L3.908 15.222C4.652 15.53 5.043 15.692 5.787 16L8 14.994L10.213 16C10.957 15.692 11.347 15.53 12.092 15.222L12.946 12.946L15.222 12.092C15.53 11.348 15.692 10.958 16 10.213L14.994 8L16 5.787ZM5.5 4C6.328 4 7 4.672 7 5.5C7 6.328 6.328 7 5.5 7C4.672 7 4 6.328 4 5.5C4 4.672 4.672 4 5.5 4ZM10.5 12C9.672 12 9 11.328 9 10.5C9 9.672 9.672 9 10.5 9C11.328 9 12 9.672 12 10.5C12 11.328 11.328 12 10.5 12ZM5.344 12L4 10.656L10.656 4L12 5.344L5.344 12Z" fill="#5A6640"/>
</svg>
