<svg width="41" height="12" viewBox="0 0 41 12" fill="none" xmlns="http://www.w3.org/2000/svg">
<path d="M0 0.00182292H3.795C4.14 0.00182292 5.175 -0.114844 5.635 1.51849C5.98 2.56849 6.44 4.20182 7.13 6.65182H7.36C8.05 4.08516 8.625 2.33516 8.855 1.51849C9.315 -0.114844 10.465 0.00182292 10.925 0.00182292H14.49V11.2018H10.81V4.55182H10.58L8.625 11.2018H5.865L3.91 4.55182H3.565V11.2018H0M15.985 0.00182292H19.665V6.65182H20.01L22.425 1.16849C22.885 0.11849 23.92 0.00182292 23.92 0.00182292H27.37V11.2018H23.69V4.55182H23.46L21.045 10.0352C20.585 11.0852 19.435 11.2018 19.435 11.2018H15.985M32.315 7.81849V11.2018H28.865V5.36849H40.135C39.675 6.76849 38.065 7.81849 36.225 7.81849" fill="#0F754E"/>
<path d="M40.3648 4.66862C40.8248 2.56862 39.4448 0.00195312 36.4548 0.00195312H28.6348C28.8648 2.45195 30.9348 4.66862 33.1198 4.66862" fill="url(#paint0_linear_386_18004)"/>
<defs>
<linearGradient id="paint0_linear_386_18004" x1="38.9848" y1="-1.51471" x2="29.7848" y2="-1.51471" gradientUnits="userSpaceOnUse">
<stop stop-color="#1F5CD7"/>
<stop offset="1" stop-color="#02AEFF"/>
</linearGradient>
</defs>
</svg>
