<svg width="24" height="17" viewBox="0 0 24 17" fill="none" xmlns="http://www.w3.org/2000/svg">
<path d="M12.084 0.5C12.1391 0.500125 12.2203 0.500478 12.3242 0.500977C12.5323 0.501976 12.8319 0.503813 13.1973 0.507812C13.9288 0.515821 14.9234 0.532458 15.9756 0.564453C17.0286 0.596475 18.1358 0.644317 19.0938 0.71582C20.0659 0.788385 20.8422 0.882069 21.2588 0.996094L21.2607 0.99707C22.1165 1.22762 22.7921 1.90398 23.0225 2.75977L23.0234 2.76172C23.2642 3.64177 23.3869 5.03911 23.4463 6.25391C23.4756 6.85344 23.489 7.39579 23.4951 7.78809C23.4982 7.98414 23.4995 8.14294 23.5 8.25195V8.46387C23.4999 8.49204 23.4995 8.53386 23.499 8.58789C23.4981 8.69645 23.496 8.85457 23.4922 9.0498C23.4845 9.44047 23.469 9.9805 23.4385 10.5781C23.3844 11.6367 23.2844 12.8375 23.1045 13.7129L23.0225 14.0645C22.8064 14.8667 22.1991 15.511 21.4189 15.7783L21.2627 15.8262C20.8442 15.9362 20.0666 16.0269 19.0947 16.0967C18.1365 16.1654 17.0295 16.2114 15.9766 16.2422C14.9244 16.273 13.9298 16.2882 13.1982 16.2959C12.8326 16.2997 12.5324 16.3018 12.3242 16.3027C12.2203 16.3032 12.1391 16.3036 12.084 16.3037H11.916C11.8611 16.3036 11.7803 16.3032 11.6768 16.3027C11.4691 16.3017 11.1696 16.2999 10.8047 16.2959C10.0747 16.2879 9.08204 16.2722 8.03125 16.2402C6.97974 16.2082 5.87374 16.1603 4.91504 16.0889C3.94234 16.0163 3.16264 15.922 2.74023 15.8076L2.73926 15.8066C1.88388 15.5762 1.20726 14.9012 0.976562 14.0459H0.977539C0.745519 13.1734 0.623403 11.7783 0.561523 10.5654C0.530993 9.9669 0.515462 9.42532 0.507812 9.0332C0.50399 8.83719 0.501928 8.67841 0.500977 8.56934C0.500502 8.51487 0.500118 8.47272 0.5 8.44434V8.35938C0.500118 8.33113 0.500504 8.28932 0.500977 8.23535C0.501928 8.12679 0.50399 7.96867 0.507812 7.77344C0.515464 7.38278 0.530979 6.84256 0.561523 6.24512C0.623379 5.03542 0.74518 3.64002 0.977539 2.75684L0.976562 2.75586C1.20821 1.9 1.90583 1.20508 2.74121 0.975586C3.16073 0.866029 3.93673 0.776544 4.90527 0.707031C5.86348 0.63827 6.97048 0.592314 8.02344 0.561523C9.07566 0.530757 10.0702 0.515515 10.8018 0.507812C11.1675 0.503963 11.4676 0.501938 11.6758 0.500977C11.7798 0.500496 11.8609 0.50012 11.916 0.5H12.084Z" stroke="#5A6640" stroke-opacity="1"/>
<path d="M9.60809 11.9997L15.8552 8.40172L9.60809 4.80371V11.9997Z" fill="#5A6640" fill-opacity="1"/>
</svg>
