<svg width="24" height="24" viewBox="0 0 24 24" fill="none" xmlns="http://www.w3.org/2000/svg">
<mask id="mask0_386_756" style="mask-type:luminance" maskUnits="userSpaceOnUse" x="0" y="0" width="24" height="24">
<path d="M24 0H0V24H24V0Z" fill="white"/>
</mask>
<g mask="url(#mask0_386_756)">
<path d="M11.5195 0.5H12.4805C15.2095 0.5 17.2061 0.500744 18.7334 0.706055C20.2465 0.909483 21.2238 1.30587 21.959 2.04102C22.6941 2.77617 23.0905 3.75352 23.2939 5.2666C23.4993 6.79394 23.5 8.79053 23.5 11.5195V12.4805C23.5 15.2095 23.4993 17.2061 23.2939 18.7334C23.0905 20.2465 22.6941 21.2238 21.959 21.959C21.2238 22.6941 20.2465 23.0905 18.7334 23.2939C17.2061 23.4993 15.2095 23.5 12.4805 23.5H11.5195C8.79053 23.5 6.79394 23.4993 5.2666 23.2939C3.75352 23.0905 2.77617 22.6941 2.04102 21.959C1.30587 21.2238 0.909483 20.2465 0.706055 18.7334C0.500744 17.2061 0.5 15.2095 0.5 12.4805V11.5195C0.5 8.79053 0.500744 6.79394 0.706055 5.2666C0.909484 3.75352 1.30587 2.77617 2.04102 2.04102C2.77617 1.30587 3.75352 0.909484 5.2666 0.706055C6.79394 0.500744 8.79053 0.5 11.5195 0.5Z" stroke="#5A6640" stroke-opacity="1"/>
<path d="M12.77 17.2903C7.30003 17.2903 4.18006 13.5403 4.05005 7.30029H6.79006C6.88006 11.8803 8.90002 13.8203 10.5 14.2203V7.30029H13.0801V11.2503C14.6601 11.0803 16.3199 9.28029 16.8799 7.30029H19.46C19.03 9.7403 17.23 11.5403 15.95 12.2803C17.23 12.8803 19.2801 14.4503 20.0601 17.2903H17.22C16.61 15.3903 15.0901 13.9203 13.0801 13.7203V17.2903H12.77Z" fill="#5A6640" fill-opacity="1"/>
</g>
</svg>
