<svg width="24" height="24" viewBox="0 0 24 24" fill="none" xmlns="http://www.w3.org/2000/svg">
<path d="M0 11.52C0 6.0888 0 3.3744 1.6872 1.6872C3.3744 0 6.0888 0 11.52 0H12.48C17.9112 0 20.6256 0 22.3128 1.6872C24 3.3744 24 6.0888 24 11.52V12.48C24 17.9112 24 20.6256 22.3128 22.3128C20.6256 24 17.9112 24 12.48 24H11.52C6.0888 24 3.3744 24 1.6872 22.3128C0 20.6256 0 17.9112 0 12.48V11.52Z" fill="#5A6640" fill-opacity="1"/>
<path d="M14.0008 0C9.568 0.0144 7.2088 0.1632 5.6872 1.6848C4 3.372 4 6.0864 4 11.5176V12.4776C4 17.9088 4 20.6232 5.6872 22.3104C7.2088 23.832 9.568 23.9808 14.0008 23.9952C18.4336 23.9808 20.7928 23.832 22.3144 22.3104C24.0016 20.6232 24.0016 17.9088 24.0016 12.4776V11.5176C24.0016 6.0864 24.0016 3.372 22.3144 1.6848C20.7928 0.1656 18.4336 0.0168 14.0008 0Z" fill="#E9F0D3"/>
<path d="M14 0.5C16.2221 0.508434 17.8788 0.550512 19.165 0.771484C20.4366 0.989987 21.2974 1.37573 21.9609 2.03809C22.6961 2.77329 23.0915 3.75086 23.2949 5.26367C23.5003 6.791 23.502 8.78785 23.502 11.5176V12.4775C23.502 15.2073 23.5003 17.2041 23.2949 18.7314C23.0915 20.2443 22.6962 21.2218 21.9609 21.957C21.2973 22.6206 20.4366 23.0071 19.165 23.2256C17.8789 23.4465 16.2222 23.4869 14 23.4941C11.7786 23.4869 10.1227 23.4465 8.83691 23.2256C7.56526 23.0071 6.70468 22.6206 6.04102 21.957C5.30578 21.2218 4.9095 20.2443 4.70605 18.7314C4.50068 17.2041 4.5 15.2073 4.5 12.4775V11.5176C4.5 8.78785 4.50068 6.791 4.70605 5.26367C4.9095 3.75082 5.30579 2.77331 6.04102 2.03809C6.70468 1.37455 7.56528 0.987999 8.83691 0.769531C10.1227 0.54863 11.7786 0.507243 14 0.5Z" stroke="#5A6640" stroke-opacity="1"/>
<path d="M16.9326 9.86647C18.147 10.5673 18.7518 10.9177 18.9558 11.3737C19.1334 11.7721 19.1334 12.2281 18.9558 12.6265C18.7518 13.0849 18.1446 13.4329 16.9326 14.1337L13.6086 16.0537C12.3942 16.7545 11.7894 17.1049 11.2902 17.0521C10.8558 17.0065 10.4622 16.7785 10.2054 16.4257C9.91016 16.0201 9.91016 15.3193 9.91016 13.9201V10.0801C9.91016 8.67847 9.91016 7.97767 10.2054 7.57447C10.4622 7.22167 10.8558 6.99367 11.2902 6.94807C11.787 6.89527 12.3942 7.24567 13.6086 7.94647L16.9326 9.86647Z" fill="#5A6640" fill-opacity="1"/>
</svg>
