<svg width="24" height="24" viewBox="0 0 24 24" fill="none" xmlns="http://www.w3.org/2000/svg">
<path d="M0 11.52C0 6.0888 0 3.3744 1.6872 1.6872C3.3744 0 6.0888 0 11.52 0H12.48C17.9112 0 20.6256 0 22.3128 1.6872C24 3.3744 24 6.0888 24 11.52V12.48C24 17.9112 24 20.6256 22.3128 22.3128C20.6256 24 17.9112 24 12.48 24H11.52C6.0888 24 3.3744 24 1.6872 22.3128C0 20.6256 0 17.9112 0 12.48V11.52Z" fill="#5A6640" fill-opacity="1"/>
<path d="M13.9992 0C9.56641 0.0144 7.20721 0.1632 5.68561 1.6848C3.99841 3.372 3.99841 6.0864 3.99841 11.5176V12.4776C3.99841 17.9088 3.99841 20.6232 5.68561 22.3104C7.20721 23.832 9.56641 23.9808 13.9992 23.9952C18.432 23.9808 20.7912 23.832 22.3128 22.3104C24 20.6232 24 17.9088 24 12.4776V11.5176C24 6.0864 24 3.372 22.3128 1.6848C20.7912 0.1656 18.432 0.0168 13.9992 0Z" fill="#E9F0D3"/>
<path d="M13.9984 0.5C16.2206 0.508434 17.8772 0.550512 19.1635 0.771484C20.435 0.989987 21.2958 1.37573 21.9594 2.03809C22.6946 2.77329 23.0899 3.75086 23.2933 5.26367C23.4987 6.791 23.5004 8.78785 23.5004 11.5176V12.4775C23.5004 15.2073 23.4987 17.2041 23.2933 18.7314C23.0899 20.2443 22.6946 21.2218 21.9594 21.957C21.2957 22.6206 20.435 23.0071 19.1635 23.2256C17.8773 23.4465 16.2207 23.4869 13.9984 23.4941C11.777 23.4869 10.1211 23.4465 8.83533 23.2256C7.56367 23.0071 6.7031 22.6206 6.03943 21.957C5.30419 21.2218 4.90791 20.2443 4.70447 18.7314C4.49909 17.2041 4.49841 15.2073 4.49841 12.4775V11.5176C4.49841 8.78785 4.49909 6.791 4.70447 5.26367C4.90791 3.75082 5.30421 2.77331 6.03943 2.03809C6.70309 1.37455 7.5637 0.987999 8.83533 0.769531C10.1211 0.54863 11.777 0.507243 13.9984 0.5Z" stroke="#5A6640" stroke-opacity="1"/>
<path d="M16.9344 9.86647C18.1488 11673 18.7536 10.9177 18.9576 11.3737C19.1352 11.7721 19.1352 12.2281 18.9576 12.6265C18.7536 13.0849 18.1464 13.4329 16.9344 14.1337L13.6104 16.0537C12.396 16.7545 11.7912 17.1049 11.292 17.0521C10.8576 17.0065 10.464 16.7785 10.2072 16.4257C9.91199 16.0201 9.91199 15.3193 9.91199 13.9201V10.0801C9.91199 8.67847 9.91199 7.97767 10.2072 7.57447C10.464 7.22167 10.8576 6.99367 11.292 6.94807C11.7888 6.89527 12.396 7.24567 13.6104 7.94647L16.9344 9.86647Z" fill="#5A6640" fill-opacity="1"/>
</svg>
