<svg width="24" height="23" viewBox="-1 0 24 23" fill="none" xmlns="http://www.w3.org/2000/svg">
<path d="M10.625 12.3453C7.01906 12.3453 0 14.3176 0 17.9342C0 19.4324 0.913646 20.791 2.38538 21.4817C4.31085 22.3856 7.42238 22.919 10.6383 22.919C13.5605 22.919 16.5694 22.4785 18.8531 21.4782C20.3089 20.8396 21.25 19.4492 21.25 17.9351C21.25 14.3185 14.2309 12.3453 10.625 12.3453ZM10.625 0C9.21756 0 7.86777 0.559103 6.87256 1.55431C5.87735 2.54952 5.31825 3.89931 5.31825 5.30675C5.31825 6.71419 5.87735 8.06398 6.87256 9.05919C7.86777 10.0544 9.21756 10.6135 10.625 10.6135C12.0324 10.6135 13.3822 10.0544 14.3774 9.05919C15.3726 8.06398 15.9318 6.71419 15.9318 5.30675C15.9318 3.89931 15.3726 2.54952 14.3774 1.55431C13.3822 0.559103 12.0324 0 10.625 0Z" fill="#5A6640"/>
</svg>
