<svg width="91" height="64" viewBox="0 0 91 64" fill="none" xmlns="http://www.w3.org/2000/svg">
<path d="M86.3435 16.0878C86.3128 15.3569 86.0666 11.4964 83.3693 7.88287C79.5542 2.77663 73.4828 1.71626 67.6677 0.707368C63.5654 -0.00297526 56.8889 -0.620665 48.6227 1.17064C48.4791 10.6831 48.3458 20.1955 48.2022 29.6976C48.315 30.7889 48.4176 31.8698 48.5304 32.9611C48.2843 33.0846 47.2895 33.3626 45.228 33.8464C44.2948 34.0112 43.1359 34.1656 41.7924 34.217C39.4951 34.2994 38.89 34.0009 38.6848 33.8876C37.4644 33.2082 37.0132 31.8389 36.8388 31.1492C36.326 29.8417 35.5568 27.8857 34.6748 25.5076C33.0031 21.0088 31.916 17.7144 31.2494 15.8614C29.4957 11.0022 27.7419 6.14304 25.9779 1.28388C25.742 1.0471 25.3113 0.707368 24.819 0.758842C24.0909 0.830906 23.537 1.67508 23.2704 2.53985C23.0858 3.13695 22.7986 4.05319 22.4499 5.16503C19.8757 13.3082 17.8656 18.7542 15.3837 25.7547C14.3068 28.7917 12.7582 33.1773 10.9122 38.5615C10.3584 39.9101 9.50712 42.0205 8.53282 44.6354C7.5175 47.3738 6.85087 49.3607 6.64575 49.9476C5.69196 52.7272 3.86643 57.1025 0 63.9691C4.91252 63.8971 9.81479 63.825 14.7273 63.7632C13.6299 62.8882 11.5685 60.9939 10.266 57.8849C8.861 54.5082 9.13791 51.5844 9.33277 49.752C9.63019 47.0341 10.0712 42.9574 13.0146 40.9499C13.9274 40.3219 14.3376 40.4145 18.7989 39.7557C25.8446 38.7159 27.1266 38.16 28.5316 39.1071C29.6597 39.8689 29.7315 40.8366 30.8084 44.7384C32.3263 50.2667 33.5159 54.4979 35.6799 57.9569C36.6234 59.4703 38.2541 61.6116 41.095 63.7323C43.5666 63.7117 46.0382 63.7015 48.4996 63.6809C45.3203 54.7141 42.141 45.7473 38.9515 36.7805C40.3053 36.7187 41.7718 36.6054 43.3205 36.4098C45.2075 36.1731 46.951 35.8436 48.5201 35.473C48.5919 37.7379 48.7868 40.1778 49.1663 42.7412C50.4893 51.6153 53.5455 58.7908 56.4069 64C57.2068 63.6397 58.3144 63.0014 59.1964 61.8587C60.6015 60.0056 60.581 57.926 60.4066 54.0243C60.1092 47.3944 59.9554 44.0795 59.8528 43.0191C59.4528 39.0453 59.0016 36.4304 60.5912 34.9995C61.1963 34.4538 61.9142 34.2479 62.4475 34.1553C63.9654 33.8979 66.2011 33.4758 68.8574 32.7552C76.2108 30.7683 80.0875 29.7285 82.9796 26.2283C86.5281 21.9147 86.3538 16.757 86.323 16.0673L86.3435 16.0878ZM18.9117 38.0879C16.0401 38.6747 13.8658 39.1997 13.0556 38.16C12.5428 37.4908 12.8095 36.4819 12.9838 35.8539C14.8196 29.2961 16.7785 24.3134 17.722 21.7294C18.9937 18.2189 19.5373 15.954 20.3885 15.9952C21.1269 16.0261 21.5987 17.7247 21.7936 18.4042C22.9217 22.3574 24.8703 28.2666 27.7522 36.4819C23.9986 37.079 20.9936 37.6555 18.9014 38.0879H18.9117ZM72.7751 26.1047C69.0317 32.1272 60.4271 32.0243 59.6579 32.0037C59.5554 30.48 57.9145 4.73265 59.3092 3.19872C59.6887 2.77663 60.1502 2.49867 60.1502 2.49867C60.4989 2.32366 60.8066 2.18982 61.1553 2.10747C62.7039 1.74715 64.6525 2.01481 64.6525 2.01481C65.7704 2.16923 66.5806 2.28248 67.5241 2.69427C69.3189 3.47668 70.3547 4.79442 70.9291 5.54594C71.7495 6.6269 73.5135 9.31385 74.0161 14.7289C74.4571 19.4337 74.7852 22.8824 72.7854 26.0944L72.7751 26.1047Z" fill="white"/>
<path d="M78.4671 53.2625C78.7542 52.6757 79.8619 50.3696 82.4361 49.6284C84.7539 48.9592 86.7127 50.0093 87.3076 50.3284C88.7947 51.1212 89.5946 52.233 89.8202 52.5624C90.1382 53.036 91.0202 54.467 90.9996 56.4745C90.9996 57.2775 90.8253 59.635 88.9075 61.3645C87.2358 62.8779 85.2667 62.9602 84.6616 62.9705C84.0257 62.9911 82.795 62.9293 81.4618 62.2705C80.7336 61.9101 78.8568 60.8189 78.0466 58.4923C77.1851 56.0009 78.1697 53.8596 78.4671 53.2522V53.2625Z" fill="white"/>
</svg>
